<svg xmlns="http://www.w3.org/2000/svg" version="1.1" xmlns:xlink="http://www.w3.org/1999/xlink" xmlns:svgjs="http://svgjs.com/svgjs" width="512" height="512" x="0" y="0" viewBox="0 0 513 513" style="enable-background:new 0 0 512 512" xml:space="preserve" class=""><g><path fill="#6366F1" d="M455.259 170.023a31.83 31.83 0 0 0-22.65-9.4h-64v-16a112 112 0 0 0-224 0v16h-64a31.997 31.997 0 0 0-32 32v216c0 39 33 72 72 72h272a72.218 72.218 0 0 0 50.48-20.55 69.477 69.477 0 0 0 21.52-50.2v-217.25a31.746 31.746 0 0 0-9.35-22.6zm-278.65-25.4a80 80 0 0 1 160 0v16h-160zm192 96a112 112 0 0 1-224 0v-16a16.001 16.001 0 0 1 32 0v16a80.002 80.002 0 0 0 136.569 56.569 80.001 80.001 0 0 0 23.431-56.569v-16a16.001 16.001 0 0 1 32 0z" data-original="#000000" class=""></path></g></svg>